<svg viewBox="0 0 933.75 400" xmlns="http://www.w3.org/2000/svg"><g><g><g><g><g><line x1="74.78125" y1="377" x2="69.78125" y2="377" style="visibility: inherit;" fill="rgb(0, 0, 0)" stroke="rgb(204, 204, 204)" stroke-width="1px"></line><line x1="74.78125" y1="329.875" x2="69.78125" y2="329.875" style="visibility: inherit;" fill="rgb(0, 0, 0)" stroke="rgb(204, 204, 204)" stroke-width="1px"></line><line x1="74.78125" y1="282.75" x2="69.78125" y2="282.75" style="visibility: inherit;" fill="rgb(0, 0, 0)" stroke="rgb(204, 204, 204)" stroke-width="1px"></line><line x1="74.78125" y1="235.625" x2="69.78125" y2="235.625" style="visibility: inherit;" fill="rgb(0, 0, 0)" stroke="rgb(204, 204, 204)" stroke-width="1px"></line><line x1="74.78125" y1="188.5" x2="69.78125" y2="188.5" style="visibility: inherit;" fill="rgb(0, 0, 0)" stroke="rgb(204, 204, 204)" stroke-width="1px"></line><line x1="74.78125" y1="141.375" x2="69.78125" y2="141.375" style="visibility: inherit;" fill="rgb(0, 0, 0)" stroke="rgb(204, 204, 204)" stroke-width="1px"></line><line x1="74.78125" y1="94.25" x2="69.78125" y2="94.25" style="visibility: inherit;" fill="rgb(0, 0, 0)" stroke="rgb(204, 204, 204)" stroke-width="1px"></line><line x1="74.78125" y1="47.125" x2="69.78125" y2="47.125" style="visibility: inherit;" fill="rgb(0, 0, 0)" stroke="rgb(204, 204, 204)" stroke-width="1px"></line><line x1="74.78125" y1="0" x2="69.78125" y2="0" style="visibility: inherit;" fill="rgb(0, 0, 0)" stroke="rgb(204, 204, 204)" stroke-width="1px"></line></g><g transform="translate(64.78125, 0)"><text x="0" y="377" dx="0em" dy="0.3em" style="text-anchor: end; visibility: hidden; font-family: &quot;Helvetica Neue&quot;, sans-serif; font-size: 12px; font-weight: 200;" fill="rgb(50, 49, 63)" stroke="none" stroke-width="1px">-4e+3</text><text x="0" y="329.875" dx="0em" dy="0.3em" style="text-anchor: end; visibility: inherit; font-family: &quot;Helvetica Neue&quot;, sans-serif; font-size: 12px; font-weight: 200;" fill="rgb(50, 49, 63)" stroke="none" stroke-width="1px">-2e+3</text><text x="0" y="282.75" dx="0em" dy="0.3em" style="text-anchor: end; visibility: inherit; font-family: &quot;Helvetica Neue&quot;, sans-serif; font-size: 12px; font-weight: 200;" fill="rgb(50, 49, 63)" stroke="none" stroke-width="1px">0</text><text x="0" y="235.625" dx="0em" dy="0.3em" style="text-anchor: end; visibility: inherit; font-family: &quot;Helvetica Neue&quot;, sans-serif; font-size: 12px; font-weight: 200;" fill="rgb(50, 49, 63)" stroke="none" stroke-width="1px">2e+3</text><text x="0" y="188.5" dx="0em" dy="0.3em" style="text-anchor: end; visibility: inherit; font-family: &quot;Helvetica Neue&quot;, sans-serif; font-size: 12px; font-weight: 200;" fill="rgb(50, 49, 63)" stroke="none" stroke-width="1px">4e+3</text><text x="0" y="141.375" dx="0em" dy="0.3em" style="text-anchor: end; visibility: inherit; font-family: &quot;Helvetica Neue&quot;, sans-serif; font-size: 12px; font-weight: 200;" fill="rgb(50, 49, 63)" stroke="none" stroke-width="1px">6e+3</text><text x="0" y="94.25" dx="0em" dy="0.3em" style="text-anchor: end; visibility: inherit; font-family: &quot;Helvetica Neue&quot;, sans-serif; font-size: 12px; font-weight: 200;" fill="rgb(50, 49, 63)" stroke="none" stroke-width="1px">8e+3</text><text x="0" y="47.125" dx="0em" dy="0.3em" style="text-anchor: end; visibility: inherit; font-family: &quot;Helvetica Neue&quot;, sans-serif; font-size: 12px; font-weight: 200;" fill="rgb(50, 49, 63)" stroke="none" stroke-width="1px">1e+4</text><text x="0" y="0" dx="0em" dy="0.3em" style="text-anchor: end; visibility: hidden; font-family: &quot;Helvetica Neue&quot;, sans-serif; font-size: 12px; font-weight: 200;" fill="rgb(50, 49, 63)" stroke="none" stroke-width="1px">1.2e+4</text></g><line x1="74.78125" y1="0" x2="74.78125" y2="377" fill="rgb(0, 0, 0)" stroke="rgb(204, 204, 204)" stroke-width="1px"></line></g></g><g transform="translate(74, 0)" clip-path="url(#clip_0)"><clipPath id="clip_0"><rect width="858" height="376"></rect></clipPath><g><g><g><line x1="0" y1="0" x2="0" y2="377" fill="rgb(0, 0, 0)" stroke="rgb(60, 60, 60)" stroke-width="1px" opacity="0.25"></line><line x1="107.37109375" y1="0" x2="107.37109375" y2="377" fill="rgb(0, 0, 0)" stroke="rgb(60, 60, 60)" stroke-width="1px" opacity="0.25"></line><line x1="214.7421875" y1="0" x2="214.7421875" y2="377" fill="rgb(0, 0, 0)" stroke="rgb(60, 60, 60)" stroke-width="1px" opacity="0.25"></line><line x1="322.11328125" y1="0" x2="322.11328125" y2="377" fill="rgb(0, 0, 0)" stroke="rgb(60, 60, 60)" stroke-width="1px" opacity="0.25"></line><line x1="429.484375" y1="0" x2="429.484375" y2="377" fill="rgb(0, 0, 0)" stroke="rgb(60, 60, 60)" stroke-width="1px" opacity="0.25"></line><line x1="536.85546875" y1="0" x2="536.85546875" y2="377" fill="rgb(0, 0, 0)" stroke="rgb(60, 60, 60)" stroke-width="1px" opacity="0.25"></line><line x1="644.2265625" y1="0" x2="644.2265625" y2="377" fill="rgb(0, 0, 0)" stroke="rgb(60, 60, 60)" stroke-width="1px" opacity="0.25"></line><line x1="751.59765625" y1="0" x2="751.59765625" y2="377" fill="rgb(0, 0, 0)" stroke="rgb(60, 60, 60)" stroke-width="1px" opacity="0.25"></line><line x1="858.96875" y1="0" x2="858.96875" y2="377" fill="rgb(0, 0, 0)" stroke="rgb(60, 60, 60)" stroke-width="1px" opacity="0.25"></line></g><g><line x1="0" y1="377" x2="858.96875" y2="377" fill="rgb(0, 0, 0)" stroke="rgb(60, 60, 60)" stroke-width="1px" opacity="0.25"></line><line x1="0" y1="329.875" x2="858.96875" y2="329.875" fill="rgb(0, 0, 0)" stroke="rgb(60, 60, 60)" stroke-width="1px" opacity="0.25"></line><line x1="0" y1="282.75" x2="858.96875" y2="282.75" fill="rgb(0, 0, 0)" stroke="rgb(60, 60, 60)" stroke-width="1px" opacity="0.25"></line><line x1="0" y1="235.625" x2="858.96875" y2="235.625" fill="rgb(0, 0, 0)" stroke="rgb(60, 60, 60)" stroke-width="1px" opacity="0.25"></line><line x1="0" y1="188.5" x2="858.96875" y2="188.5" fill="rgb(0, 0, 0)" stroke="rgb(60, 60, 60)" stroke-width="1px" opacity="0.25"></line><line x1="0" y1="141.375" x2="858.96875" y2="141.375" fill="rgb(0, 0, 0)" stroke="rgb(60, 60, 60)" stroke-width="1px" opacity="0.25"></line><line x1="0" y1="94.25" x2="858.96875" y2="94.25" fill="rgb(0, 0, 0)" stroke="rgb(60, 60, 60)" stroke-width="1px" opacity="0.25"></line><line x1="0" y1="47.125" x2="858.96875" y2="47.125" fill="rgb(0, 0, 0)" stroke="rgb(60, 60, 60)" stroke-width="1px" opacity="0.25"></line><line x1="0" y1="0" x2="858.96875" y2="0" fill="rgb(0, 0, 0)" stroke="rgb(60, 60, 60)" stroke-width="1px" opacity="0.25"></line></g></g></g><g><g><line x1="0" y1="282.75" x2="858.96875" y2="282.75" fill="rgb(0, 0, 0)" stroke="rgb(153, 153, 153)" stroke-width="1.5px"></line></g></g><g><g><line x1="107.37109375" y1="0" x2="107.37109375" y2="377" fill="rgb(0, 0, 0)" stroke="rgb(153, 153, 153)" stroke-width="1.5px"></line></g></g><g><g><g><g><g><path stroke="rgb(255, 112, 67)" stroke-width="2px" d="M110.07738216796874,275.78701663208005L112.76273322265624,276.0396699390411L115.45989509765624,276.54374047088623L118.16296238281251,274.31945355796813L120.850460859375,275.1382180747986L123.53473820312499,274.1554846458435L126.2265315234375,275.5797230072021L128.94355705078124,274.68812384605405L131.62890810546875,273.219205324173L134.32123828124998,272.89191610145565L137.024842421875,274.40575351524353L139.7424048046875,274.4606610145569L142.4771465625,273.87229888916016L145.16840302734374,270.83875932312014L147.86019634765626,270.47524045562744L150.579369296875,273.0380125179291L153.2818997265625,270.0301128463745L156.00107267578124,269.1597312965393L158.73474072265626,267.7481083068848L161.46196650390627,266.34015689086914L164.15966523437498,267.75510917663576L166.85629025390625,265.9163971786499L169.575463203125,269.1067573776245L172.30537326171876,267.61886258697507L175.0234725,267.6844878311157L177.7195606640625,265.67780529403683L180.43658619140626,265.16074906921386L183.14233775390625,265.26422186660767L185.8389627734375,267.44038930511476L188.61182126953125,264.550276966095L191.34763673828124,267.925385055542L194.10063158203124,266.1383353919983L196.8155096875,258.92785517120365L199.5846101953125,261.62796465301517L202.41867021484373,253.46249705505372L205.13408517578125,262.4786163482666L207.92251248046875,258.0763434677124L210.68785499999998,244.33697550964357L213.4633977734375,255.55590092468262L216.2282034375,256.8409689559936L218.94200783203124,259.0931694641113L221.62682203125,248.99185495758056L224.36156378906247,241.46114534759522L227.13173800781252,241.40688429260254L229.90781763671876,244.5566889190674L232.60444265625,238.7439277420044L235.37730115234373,225.96489273071288L238.20491890625,232.87340507507324L240.91657587890623,235.0422423095703L243.61964316406247,174.03933248901367L246.79406955078127,213.98990214538574L249.85683000000003,238.77520442962646L252.59479289062497,191.11700219726563L255.31396583984375,182.21638287353517L258.2795554492188,185.43595458984376L261.01912890625,248.38734394836425L263.72649103515624,216.1312708892822L266.4880755664062,236.443796875L269.430580390625,191.65854277038574L272.4509292578125,166.01900494384765L275.537848203125,197.61208930969238L278.51900662109375,179.007510925293L281.20650509765625,179.7761109313965L283.957889375,202.65029945373536L286.717326484375,200.5436531829834L289.70009546874996,174.52158139038085L292.67695904296875,176.88870373535158L295.47236546875,172.2333266906738L298.3332682617188,184.3074742126465L301.0970002148438,188.831226852417L303.81026775390626,164.4511782836914L306.54393580078124,176.36581872558594L309.48697748046874,192.60308493041993L312.3457328515625,185.31576052856445L315.5217698046875,196.65531144714356L318.44172669921875,175.03550390625L321.247870234375,205.2865612335205L324.2145335546875,168.943125L327.26011462890625,167.64925842285157L330.36313923828124,188.1954075164795L333.5837351953125,199.44039779663086L336.37108878906247,186.7397328338623L339.591147890625,165.07895553588864L342.275425234375,175.23445056152346L345.0600945507813,164.27112304687503L347.74437189453124,171.37694256591797L350.5897058789063,177.22995730590821L353.6712562695313,164.2170834655762L356.6255719140625,170.525494140625L359.5396233984375,199.6148442840576L362.37690455078126,211.9291210632324L365.35752611328127,179.96818902587893L368.2039338085938,181.7562583312988L370.88821115234373,175.6246354370117L373.9552664453125,174.09637490844727L377.05668048828124,167.25397677612307L379.81343332031247,172.72663201904297L382.49771066406254,164.59013720703126L385.2533897851563,164.8743713684082L387.93766712890624,165.04955993652345L390.6842197070312,167.9016809082031L393.3684970507813,165.9223158569336L396.05277439453124,184.15491622924804L398.73705173828125,168.89681686401366L401.42132908203126,178.0237190246582L404.1056064257812,170.35862377929686L406.7898837695313,172.70334564208986L409.47416111328124,171.72268313598633L412.68026197265624,173.87543045043947L415.36453931640625,164.77664682006835L418.5164177734375,186.44764642333985L421.2006951171875,165.05447262573244L424.405722265625,188.32897053527833L427.089999609375,196.7455519104004L429.77427695312497,169.41154473876952L432.8633433203125,170.9335694885254L435.5476206640625,163.76462133789062L438.23189800781256,170.2261307373047L441.3687445117188,228.3378999481201L444.2001202539063,188.11285247802732L446.99445296875,195.13080158996584L450.1592159570312,163.4593788146973L452.84349330078123,165.29563159179688L455.5277706445313,168.1724080505371L458.2120479882812,166.385857421875L460.9902750390625,170.00305783081055L463.8941262695313,163.82236557006837L466.5784036132813,165.9306110534668L469.26268095703125,161.43566149902344L472.4811294921875,165.13571032714842L475.16540683593746,165.91300820922854L477.84968417968753,177.14786822509765L480.69823929687504,196.87234416198731L483.38251664062494,192.0666008605957L486.1618174023438,163.8509903259277L489.0307730273438,162.6025805053711L491.94428765624997,167.39091079711912L494.69406136718754,162.371891204834L497.86848775390627,200.76447108459473L500.92426908203123,164.34541165161133L503.7588659570312,168.43718704223633L506.44314330078123,183.12697915649414L509.3110252148437,167.27131500244138L511.9953025585937,164.04316046142577L514.7042752539062,176.47980001831056L517.3885525976563,174.93972372436522L520.0728299414063,172.6335785522461L522.7571072851563,165.09707611083982L525.4413846289062,163.93450604248048L528.4407961328126,174.73582986450197L531.1250734765625,183.78470425415037L533.8093508203125,170.8678176879883L536.6004624023437,167.00745642089845L539.2847397460937,163.36019311523435L541.9690170898438,184.70506838989257L544.6532944335938,170.84454281616212L547.4438691601562,205.47598164367676L550.5683679882812,180.17164569091796L553.2526453320312,169.88429040527345L555.9369226757813,163.3908657836914L558.7350133789063,190.1818252105713L561.6329591992187,164.03747692871096L564.6957196484375,188.61771470642088L567.3799969921876,162.55888403320313L570.2194255664062,169.49423208618165L572.9890629296875,172.31380505371095L575.6733402734375,171.71384719848635L578.3576176171874,173.20335845947267L581.573381875,166.50812240600584L584.7172075,165.10998486328123L587.5335512890625,162.81716262817386L590.2178286328125,167.05079623413087L593.0271933007813,161.6551678161621L595.7114706445313,161.12259548950198L598.8633491015626,160.75531732177734L601.5476264453125,169.97990951538088L604.3961815625,163.78002670288086L607.1776297460937,164.63421334838867L609.8619070898437,177.42180529785156L612.5461844335938,166.28654516601563L615.2304617773437,165.10037808227537L617.9147391210938,170.23268865966796L620.5990164648437,171.77594036865236L623.6505029492188,162.592536529541L626.3347802929687,167.67764157104494L629.0818697265626,162.7749503173828L631.7661470703124,163.2738701477051L634.4504244140625,165.3474161682129L637.1347017578125,164.00549267578123L639.9021916992187,175.41073211669922L642.5864690429687,163.7071877441406L645.2707463867188,164.28712667846682L647.9550237304687,174.85899224853515L650.6393010742188,165.30090093994139L653.3235784179687,176.85638583374023L656.05885703125,163.96921701049806L658.7431343750001,170.5817772216797L661.9245398828125,164.63450097656252L664.6088172265625,164.34591787719725L667.7730433593749,162.58895843505857L670.457320703125,162.44735333251955L673.1415980468751,161.39532452392578L676.28757109375,163.2853982849121L678.9718484375,164.31124142456054L681.65612578125,171.41444927978515L684.4987754882812,199.78608084106443L687.7134660351562,161.19047573852538L690.3977433789063,171.69089447021486L693.0820207226562,168.84534292602538L696.1780662109376,194.56632554626466L699.0851385742188,166.60115286254882L701.7694159179687,187.0770458984375L704.6705828710938,164.77695745849607L707.3548602148438,163.87128536987305L710.0391375585938,170.63525305175781L712.8275648632813,163.6010414428711L715.984811875,163.7562686157227L718.66908921875,164.5187248840332L721.4811381640625,183.37904498291016L724.619595234375,167.54819738769532L727.7682525585938,162.8139757080078L730.9829431054687,166.07786517333983L734.06180921875,167.84996536254883L737.1347699218751,183.83497015380863L740.16907703125,190.08549278259278L743.2994812695313,165.83349627685547L745.9837586132812,170.9511953430176L748.6680359570313,170.78817919921875L751.3523133007812,175.98799035644532L754.0365906445312,170.45369064331058L756.7208679882813,163.85231341552733L759.7755756054687,164.0118435058594L762.52373875,165.91987677001953L765.20801609375,163.11936779785157L768.4264646289063,188.13162884521483L771.2852200000001,172.9105874938965L774.2604730078125,168.57369537353514L777.0005833203124,175.75855511474612L779.8990659960938,169.23721905517579L783.053091875,166.42383584594725L786.2382553710938,167.39645626831054L788.9225327148438,158.97876464843753L792.108769921875,177.99890246582032L794.9567881835937,176.25833782958983L797.8627868359375,161.6283953857422L801.0651297070312,171.40335833740235L803.9770337695312,172.43831353759768L806.6613111132813,163.4478391723633L809.3498833007812,167.9436286010742L812.4470025,166.2441142578125" style="fill: none;" fill="none"></path></g></g></g></g></g></g><g transform="translate(74, 377)" clip-path="url(#clip_1)"><clipPath id="clip_1"><rect width="858" height="22"></rect></clipPath><g><g><line x1="0" y1="0" x2="0" y2="5" style="visibility: inherit;" fill="rgb(0, 0, 0)" stroke="rgb(204, 204, 204)" stroke-width="1px"></line><line x1="107.37109375" y1="0" x2="107.37109375" y2="5" style="visibility: inherit;" fill="rgb(0, 0, 0)" stroke="rgb(204, 204, 204)" stroke-width="1px"></line><line x1="214.7421875" y1="0" x2="214.7421875" y2="5" style="visibility: inherit;" fill="rgb(0, 0, 0)" stroke="rgb(204, 204, 204)" stroke-width="1px"></line><line x1="322.11328125" y1="0" x2="322.11328125" y2="5" style="visibility: inherit;" fill="rgb(0, 0, 0)" stroke="rgb(204, 204, 204)" stroke-width="1px"></line><line x1="429.484375" y1="0" x2="429.484375" y2="5" style="visibility: inherit;" fill="rgb(0, 0, 0)" stroke="rgb(204, 204, 204)" stroke-width="1px"></line><line x1="536.85546875" y1="0" x2="536.85546875" y2="5" style="visibility: inherit;" fill="rgb(0, 0, 0)" stroke="rgb(204, 204, 204)" stroke-width="1px"></line><line x1="644.2265625" y1="0" x2="644.2265625" y2="5" style="visibility: inherit;" fill="rgb(0, 0, 0)" stroke="rgb(204, 204, 204)" stroke-width="1px"></line><line x1="751.59765625" y1="0" x2="751.59765625" y2="5" style="visibility: inherit;" fill="rgb(0, 0, 0)" stroke="rgb(204, 204, 204)" stroke-width="1px"></line><line x1="858.96875" y1="0" x2="858.96875" y2="5" style="visibility: inherit;" fill="rgb(0, 0, 0)" stroke="rgb(204, 204, 204)" stroke-width="1px"></line></g><g transform="translate(0, 8)"><text x="0" y="0" dx="0em" dy="0.95em" style="text-anchor: middle; visibility: hidden; font-family: &quot;Helvetica Neue&quot;, sans-serif; font-size: 12px; font-weight: 200;" fill="rgb(50, 49, 63)" stroke="none" stroke-width="1px">-200k</text><text x="107.37109375" y="0" dx="0em" dy="0.95em" style="text-anchor: middle; visibility: inherit; font-family: &quot;Helvetica Neue&quot;, sans-serif; font-size: 12px; font-weight: 200;" fill="rgb(50, 49, 63)" stroke="none" stroke-width="1px">0</text><text x="214.7421875" y="0" dx="0em" dy="0.95em" style="text-anchor: middle; visibility: inherit; font-family: &quot;Helvetica Neue&quot;, sans-serif; font-size: 12px; font-weight: 200;" fill="rgb(50, 49, 63)" stroke="none" stroke-width="1px">200k</text><text x="322.11328125" y="0" dx="0em" dy="0.95em" style="text-anchor: middle; visibility: inherit; font-family: &quot;Helvetica Neue&quot;, sans-serif; font-size: 12px; font-weight: 200;" fill="rgb(50, 49, 63)" stroke="none" stroke-width="1px">400k</text><text x="429.484375" y="0" dx="0em" dy="0.95em" style="text-anchor: middle; visibility: inherit; font-family: &quot;Helvetica Neue&quot;, sans-serif; font-size: 12px; font-weight: 200;" fill="rgb(50, 49, 63)" stroke="none" stroke-width="1px">600k</text><text x="536.85546875" y="0" dx="0em" dy="0.95em" style="text-anchor: middle; visibility: inherit; font-family: &quot;Helvetica Neue&quot;, sans-serif; font-size: 12px; font-weight: 200;" fill="rgb(50, 49, 63)" stroke="none" stroke-width="1px">800k</text><text x="644.2265625" y="0" dx="0em" dy="0.95em" style="text-anchor: middle; visibility: inherit; font-family: &quot;Helvetica Neue&quot;, sans-serif; font-size: 12px; font-weight: 200;" fill="rgb(50, 49, 63)" stroke="none" stroke-width="1px">1M</text><text x="751.59765625" y="0" dx="0em" dy="0.95em" style="text-anchor: middle; visibility: inherit; font-family: &quot;Helvetica Neue&quot;, sans-serif; font-size: 12px; font-weight: 200;" fill="rgb(50, 49, 63)" stroke="none" stroke-width="1px">1.2M</text><text x="858.96875" y="0" dx="0em" dy="0.95em" style="text-anchor: middle; visibility: hidden; font-family: &quot;Helvetica Neue&quot;, sans-serif; font-size: 12px; font-weight: 200;" fill="rgb(50, 49, 63)" stroke="none" stroke-width="1px">1.4M</text></g><line x1="0" y1="0" x2="858.96875" y2="0" fill="rgb(0, 0, 0)" stroke="rgb(204, 204, 204)" stroke-width="1px"></line></g></g></g></g></svg>